<svg width="16" height="12" viewBox="0 0 16 12" fill="none" xmlns="http://www.w3.org/2000/svg">
<path d="M5.78185 11.727C5.6572 11.7266 5.53396 11.7006 5.4198 11.6506C5.30563 11.6005 5.20298 11.5275 5.11822 11.4361L0.700034 6.73613C0.534876 6.56012 0.446402 6.32571 0.454074 6.08447C0.461746 5.84323 0.564935 5.61492 0.740943 5.44976C0.91695 5.28461 1.15136 5.19613 1.3926 5.2038C1.63384 5.21147 1.86215 5.31467 2.02731 5.49067L5.77276 9.48158L13.4182 1.11795C13.4958 1.02133 13.5923 0.941595 13.7018 0.883639C13.8114 0.825683 13.9316 0.79073 14.0551 0.780926C14.1786 0.771122 14.3029 0.786675 14.4202 0.826628C14.5375 0.866581 14.6453 0.930092 14.7372 1.01326C14.8291 1.09643 14.9029 1.1975 14.9543 1.31026C15.0057 1.42302 15.0335 1.54509 15.0359 1.66898C15.0384 1.79287 15.0156 1.91596 14.9687 2.03068C14.9219 2.14541 14.8521 2.24935 14.7637 2.33613L6.45458 11.427C6.37062 11.5201 6.26832 11.5948 6.15412 11.6464C6.03991 11.698 5.91627 11.7255 5.79094 11.727H5.78185Z" fill="#00C473"/>
</svg>
